<svg viewBox="0 0 256 112">
	<defs>
		<style>
			.cls-6{fill:none;}.cls-2{clip-path:url(#clip-path);}.cls-3{fill:#bc2932;}.cls-4{fill:#ea565a;}.cls-5,.cls-7{fill:#3c3c3b;}.cls-5,.cls-6{stroke:#3c3c3b;stroke-miterlimit:10;}.cls-5{stroke-width:0.25px;}.cls-6{stroke-width:2px;}.cls-10,.cls-12,.cls-13,.cls-14,.cls-15,.cls-16,.cls-17,.cls-8,.cls-9{fill-opacity:0.55;}.cls-8{fill:url(#gradient_9);}.cls-9{fill:url(#gradient_9-2);}.cls-10{fill:url(#gradient_9-3);}.cls-11{fill:#f6f6f6;}.cls-12{fill:url(#gradient_9-4);}.cls-13{fill:url(#gradient_9-5);}.cls-14{fill:url(#gradient_9-6);}.cls-15{fill:url(#gradient_9-7);}.cls-16{fill:url(#gradient_9-8);}.cls-17{fill:url(#gradient_9-9);}
		</style>
		<linearGradient id="gradient_9" x1="35" y1="-445.45" x2="35" y2="-484.97" gradientTransform="matrix(1, 0, 0, -1, 0, -431.72)" gradientUnits="userSpaceOnUse">
			<stop offset="0" stop-color="#ea555a" />
			<stop offset="1" stop-color="#0a797d" />
		</linearGradient>
		<linearGradient id="gradient_9-2" x1="55.16" y1="-454.75" x2="55.16" y2="-485.5" gradientTransform="matrix(1, 0, 0, -1, 0, -431.72)" gradientUnits="userSpaceOnUse">
			<stop offset="0" stop-color="#ea555a" />
			<stop offset="1" stop-color="#0a797d" />
		</linearGradient>
		<linearGradient id="gradient_9-3" x1="76.59" y1="-453.77" x2="76.59" y2="-489.41" gradientTransform="matrix(1, 0, 0, -1, 0, -431.72)" gradientUnits="userSpaceOnUse">
			<stop offset="0" stop-color="#ea555a" />
			<stop offset="1" stop-color="#0a797d" />
		</linearGradient>
		<linearGradient id="gradient_9-4" x1="37.9" y1="-487.82" x2="37.9" y2="-531.78" gradientTransform="matrix(1, 0, 0, -1, 0, -431.72)" gradientUnits="userSpaceOnUse">
			<stop offset="0" stop-color="#ea555a" />
			<stop offset="1" stop-color="#0a797d" />
		</linearGradient>
		<linearGradient id="gradient_9-5" x1="58.38" y1="-498.18" x2="58.38" y2="-528.31" gradientTransform="matrix(1, 0, 0, -1, 0, -431.72)" gradientUnits="userSpaceOnUse">
			<stop offset="0" stop-color="#ea555a" />
			<stop offset="1" stop-color="#0a797d" />
		</linearGradient>
		<linearGradient id="gradient_9-6" x1="82.89" y1="-493.85" x2="82.89" y2="-527.45" gradientTransform="matrix(1, 0, 0, -1, 0, -431.72)" gradientUnits="userSpaceOnUse">
			<stop offset="0" stop-color="#ea555a" />
			<stop offset="1" stop-color="#0a797d" />
		</linearGradient>
		<linearGradient id="gradient_9-7" x1="207.6" y1="-443.44" x2="207.6" y2="-533.58" gradientTransform="matrix(1, 0, 0, -1, 0, -431.72)" gradientUnits="userSpaceOnUse">
			<stop offset="0" stop-color="#ea555a" />
			<stop offset="1" stop-color="#0a797d" />
		</linearGradient>
		<linearGradient id="gradient_9-8" x1="130.64" y1="-450.1" x2="130.64" y2="-527.34" gradientTransform="matrix(1, 0, 0, -1, 0, -431.72)" gradientUnits="userSpaceOnUse">
			<stop offset="0" stop-color="#ea555a" />
			<stop offset="1" stop-color="#0a797d" />
		</linearGradient>
		<linearGradient id="gradient_9-9" x1="205.33" y1="-467.64" x2="205.33" y2="-504.62" gradientTransform="matrix(1, 0, 0, -1, 0, -431.72)" gradientUnits="userSpaceOnUse">
			<stop offset="0" stop-color="#ea555a" />
			<stop offset="1" stop-color="#0a797d" />
		</linearGradient>
	</defs>
	<g id="Lager_2" data-name="Lager 2">
		<g id="Lager_5" data-name="Lager 5">
			<g class="cls-2">
				<path class="cls-3" d="M2.32,81.46,29.56,63.71a3.61,3.61,0,0,0-.11-6.13L1.69,40.47a3.61,3.61,0,0,1-1.16-5l14.25-24a3.63,3.63,0,0,1,5-1.27L65.45,37.93a3.35,3.35,0,0,0,3.8-.1L120,4.86a3.57,3.57,0,0,1,5,1.06L140.4,29.69c1.06,1.69,2.22,5.39.64,6.45L106.31,56.42a3.61,3.61,0,0,0,.1,6.13L136.6,80.72a3.64,3.64,0,0,1,1.27,5L123,109.89a3.61,3.61,0,0,1-5,1.16L70.2,82.1a3.51,3.51,0,0,0-3.9.1L21.64,111.37a3.73,3.73,0,0,1-5.07-1.06L1.27,86.43A3.58,3.58,0,0,1,2.32,81.46Z" transform="translate(0.02 0.05)" />
				<path class="cls-4" d="M2.32,77.13,29.56,59.38a3.61,3.61,0,0,0-.11-6.13L1.69,36.14a3.61,3.61,0,0,1-1.16-5l14.25-24a3.62,3.62,0,0,1,5-1.27L65.45,33.6a3.33,3.33,0,0,0,3.8-.11L120,.53a3.56,3.56,0,0,1,5,1.06L140.4,25.36c1.06,1.69,2.22,5.39.64,6.44L106.31,52.09a3.61,3.61,0,0,0,.1,6.13L136.6,76.39a3.64,3.64,0,0,1,1.27,5l-15,24.3a3.59,3.59,0,0,1-5,1.16l-47.72-29a3.51,3.51,0,0,0-3.9.1L21.64,107a3.72,3.72,0,0,1-5.07-1L1.27,82.1A3.58,3.58,0,0,1,2.32,77.13Z" transform="translate(0.02 0.05)" />
				<path class="cls-5" d="M138.93,99.74a17.21,17.21,0,0,0,3.69,1.9l25.65.64c.74,0,1.8-1.48,1.8-2.11l.74-12a46.83,46.83,0,0,0,4.54,5.81c8.86,9.72,20.79,15.53,34,15.43,13.41-.21,25.34-6.45,33.89-16.38,8-9.19,12.77-22.19,12.56-35.92a54.73,54.73,0,0,0-13.62-35.82C233.3,11.52,221.27,5.81,207.86,6c-13.09.21-27.87,5.07-37.05,17.75V14.26c0-.63,0-2.64-.74-2.64l-31.67-.53c-.64,0-3,.11-3,2.22,0,5.08.21,20.08.21,20.08,0,1.27-1.58,1.06-2.21,0L121.51,15.74c-.21-.42-1.48-1.9-1.9-1.9l-26.08.42c-.63,0-.74.43-.74,1.06l-.21,7.61c-2.43-3.17-7.39-7.08-16-6.76a16.92,16.92,0,0,0-13.2,8.13V20.6c0-.63,0-1.05-1.06-1.05H53.84l-.53-8.46c0-.95-.74-1.58-2.11-1.58L19,10.14c-1.16.32-1.48.21-1.58,2.33l.32,11.94c0,1.9.84,3.06,2.21,3l4.33-.22c1.8,0,1.9,2.75,1.9,3.17l1.27,22.19-4.54-.1c-1.06.31-2.11-.21-2.32,1.9l.21,13.42c0,1.79,1.37,2.32,2.64,2.22l5.7.42c1.58,0,1.16,1.48,1.16,2l1.16,30c0,1,.95,2.74,2.22,2.74l11.19.21c1.16,0,3.8-1.37,3.69-2.32l.63-3.38a22.12,22.12,0,0,0,5.39-.11L60,95c1.06-.21,6.23,3.7,7.39,4,2,.64,8.13-2.43,8.13-2.43,2.53,1.91,5.81,2.65,9.61,2.65a15,15,0,0,0,7.28-1.48l.11-.11c1.26,1.9,3.8,1.27,4.43,1.27l22-.11c.63,0,6.54-.21,6.76-1.48.31-2.53.42-16,.42-16ZM88,35.82c.74-.85,2.54-1.69,4-2.54v7.4a4.75,4.75,0,0,0-1.58-.85c-1.9-.63-3.06-.74-3.06-2.32A2.68,2.68,0,0,1,88,35.82ZM66.93,62.23a1.28,1.28,0,0,0-1.27-.95l-8,.43-.11-4,3.07-.11a1.92,1.92,0,0,0,1.58-.73c3.06,3.27,5.49,5.07,10.56,5.7-2.54,2.33-1.9,1.8-3.28,5.07Z" transform="translate(0.02 0.05)" />
				<path class="cls-6" d="M90.47,71.64a1,1,0,0,1-1.27-.32,5.34,5.34,0,0,0-5.06-1.8c-5.6.53-6.23,9.41-4.44,13.63,1,2.12,2.43,3.6,4.65,3.6a4.37,4.37,0,0,0,4.54-3.6,1.14,1.14,0,0,1,1.16-.84l6,.42A1.11,1.11,0,0,1,97.12,84c-.53,3.06-2.85,10.78-12.56,10.88-6.12.11-10.14-3.59-12.25-8.56-3.9-9.4-.52-23.66,11.09-24.93,7.92-.85,11.82,3.91,13.19,6.23a1.12,1.12,0,0,1-.52,1.59Z" transform="translate(0.02 0.05)" />
				<path class="cls-7" d="M40.75,24.62l1.37,27.05A1.27,1.27,0,0,1,41,52.94l-7.07.31a1.26,1.26,0,0,1-1.27-1.16L31.25,25A1.27,1.27,0,0,0,30,23.88l-5.7.21A1.36,1.36,0,0,1,23,22.93l-.31-7.08a1.35,1.35,0,0,1,1.16-1.27l21.85-.84A1.35,1.35,0,0,1,47,14.9l.31,7.18a1.34,1.34,0,0,1-1.16,1.27l-4.33.21A.87.87,0,0,0,40.75,24.62Z" transform="translate(0.02 0.05)" />
				<path class="cls-8" d="M40.75,24.62l1.37,27.05A1.27,1.27,0,0,1,41,52.94l-7.07.31a1.26,1.26,0,0,1-1.27-1.16L31.25,25A1.27,1.27,0,0,0,30,23.88l-5.7.21A1.36,1.36,0,0,1,23,22.93l-.31-7.08a1.35,1.35,0,0,1,1.16-1.27l21.85-.84A1.35,1.35,0,0,1,47,14.9l.31,7.18a1.34,1.34,0,0,1-1.16,1.27l-4.33.21A.87.87,0,0,0,40.75,24.62Z" transform="translate(0.02 0.05)" />
				<path class="cls-7" d="M58.91,24l1.16,28.53A1.14,1.14,0,0,1,59,53.57l-6.44.21a1.15,1.15,0,0,1-1.16-1L50.25,24.3a1.12,1.12,0,0,1,1.06-1.05L57.75,23A1.08,1.08,0,0,1,58.91,24Z" transform="translate(0.02 0.05)" />
				<path class="cls-9" d="M58.91,24l1.16,28.53A1.14,1.14,0,0,1,59,53.57l-6.44.21a1.15,1.15,0,0,1-1.16-1L50.25,24.3a1.12,1.12,0,0,1,1.06-1.05L57.75,23A1.08,1.08,0,0,1,58.91,24Z" transform="translate(0.02 0.05)" />
				<path class="cls-7" d="M83.61,33a1,1,0,0,1-1.27-.32,6,6,0,0,0-5.49-1.9c-5.91.63-6.54,10-4.54,14.47,1,2.22,2.64,3.81,5,3.81A4.58,4.58,0,0,0,82,45.12a1,1,0,0,1,1-.85l6.55.32a1.11,1.11,0,0,1,1.05,1.27C90.15,49,87.94,57.48,77.49,57.69c-6.44.21-10.88-3.59-13.2-8.87-4.33-9.94-1-25.15,11.4-26.63,8.55-1.06,12.78,4.23,14.15,6.55a1,1,0,0,1-.53,1.48Z" transform="translate(0.02 0.05)" />
				<path class="cls-10" d="M83.61,33a1,1,0,0,1-1.27-.32,6,6,0,0,0-5.49-1.9c-5.91.63-6.54,10-4.54,14.47,1,2.22,2.64,3.81,5,3.81A4.58,4.58,0,0,0,82,45.12a1,1,0,0,1,1-.85l6.55.32a1.11,1.11,0,0,1,1.05,1.27C90.15,49,87.94,57.48,77.49,57.69c-6.44.21-10.88-3.59-13.2-8.87-4.33-9.94-1-25.15,11.4-26.63,8.55-1.06,12.78,4.23,14.15,6.55a1,1,0,0,1-.53,1.48Z" transform="translate(0.02 0.05)" />
				<path class="cls-11" d="M43,24.62l1.26,25.89a1.08,1.08,0,0,1-1,1.16L36.42,52a1.08,1.08,0,0,1-1.16-1L34,25A1.09,1.09,0,0,0,32.83,24l-5.38.22a1.09,1.09,0,0,1-1.16-1.06L26,16.38A1.08,1.08,0,0,1,27,15.22l20.79-1A1.09,1.09,0,0,1,49,15.32l.32,6.87a1.09,1.09,0,0,1-1.06,1.16l-4.11.21A.94.94,0,0,0,43,24.62Z" transform="translate(0.02 0.05)" />
				<path class="cls-11" d="M60.38,24l1.06,27.26a1,1,0,0,1-.95,1l-6.12.21a1,1,0,0,1-1.06-.85L52.26,24.3a.94.94,0,0,1,1-.95l6.12-.21A.89.89,0,0,1,60.38,24Z" transform="translate(0.02 0.05)" />
				<path class="cls-11" d="M84,32.54a1.13,1.13,0,0,1-1.27-.21c-.63-.84-2.21-2.11-5.27-1.79-5.7.63-6.23,9.61-4.23,13.84C74.21,46.6,75.8,48.08,78,48a4.64,4.64,0,0,0,4.65-3.8,1,1,0,0,1,1-.85l6.23.32a1,1,0,0,1,1,1.16c-.42,3.06-2.64,11.09-12.56,11.31-6.12.21-10.34-3.49-12.56-8.56-4.12-9.51-.85-24,11-25.47a13.56,13.56,0,0,1,13.62,6.24,1.08,1.08,0,0,1-.43,1.48Z" transform="translate(0.02 0.05)" />
				<path class="cls-7" d="M44,68.36l.85,30a1.5,1.5,0,0,1-1.38,1.48l-7.6.21a1.49,1.49,0,0,1-1.48-1.37l-.84-30.12a1.42,1.42,0,0,0-1.48-1.37L26,67.31a1.5,1.5,0,0,1-1.48-1.38l-.21-7.71a1.49,1.49,0,0,1,1.37-1.48l24.18-.63a1.49,1.49,0,0,1,1.48,1.37l.21,7.82a1.5,1.5,0,0,1-1.38,1.48l-4.75.1A1.31,1.31,0,0,0,44,68.36Z" transform="translate(0.02 0.05)" />
				<path class="cls-12" d="M44,68.36l.85,30a1.5,1.5,0,0,1-1.38,1.48l-7.6.21a1.49,1.49,0,0,1-1.48-1.37l-.84-30.12a1.42,1.42,0,0,0-1.48-1.37L26,67.31a1.5,1.5,0,0,1-1.48-1.38l-.21-7.71a1.49,1.49,0,0,1,1.37-1.48l24.18-.63a1.49,1.49,0,0,1,1.48,1.37l.21,7.82a1.5,1.5,0,0,1-1.38,1.48l-4.75.1A1.31,1.31,0,0,0,44,68.36Z" transform="translate(0.02 0.05)" />
				<path class="cls-7" d="M47.29,94.14,53.1,67.62a.9.9,0,0,1,.84-.74l7.92-.42a1,1,0,0,1,1,.74l6.65,25.15a1,1,0,0,1-.63,1.16s-5.07,2.22-5.7,1.48-1-3.49-1-3.49a.82.82,0,0,0-1-.63l-5.6.31a.89.89,0,0,0-.84.74l-.85,3.91a.91.91,0,0,1-1,.74l-4.86-1A1.55,1.55,0,0,1,47.29,94.14ZM60.17,83.89l-2-7.6-1.69,7.82Z" transform="translate(0.02 0.05)" />
				<path class="cls-13" d="M47.29,94.14,53.1,67.62a.9.9,0,0,1,.84-.74l7.92-.42a1,1,0,0,1,1,.74l6.65,25.15a1,1,0,0,1-.63,1.16s-5.07,2.22-5.7,1.48-1-3.49-1-3.49a.82.82,0,0,0-1-.63l-5.6.31a.89.89,0,0,0-.84.74l-.85,3.91a.91.91,0,0,1-1,.74l-4.86-1A1.55,1.55,0,0,1,47.29,94.14ZM60.17,83.89l-2-7.6-1.69,7.82Z" transform="translate(0.02 0.05)" />
				<path class="cls-7" d="M89.42,72.48a1,1,0,0,1-1.27-.31,5.33,5.33,0,0,0-5.07-1.8c-5.59.53-6.23,9.4-4.43,13.63.95,2.11,2.43,3.59,4.64,3.59A4.37,4.37,0,0,0,87.83,84,1.15,1.15,0,0,1,89,83.15l6,.43a1.12,1.12,0,0,1,1.06,1.27c-.53,3.06-2.85,10.77-12.57,10.88-6.12.1-10.13-3.59-12.24-8.56-3.91-9.4-.53-23.67,11.08-24.94,7.92-.84,11.83,3.91,13.2,6.24A1.12,1.12,0,0,1,95,70.05Z" transform="translate(0.02 0.05)" />
				<path class="cls-14" d="M89.42,72.48a1,1,0,0,1-1.27-.31,5.33,5.33,0,0,0-5.07-1.8c-5.59.53-6.23,9.4-4.43,13.63.95,2.11,2.43,3.59,4.64,3.59A4.37,4.37,0,0,0,87.83,84,1.15,1.15,0,0,1,89,83.15l6,.43a1.12,1.12,0,0,1,1.06,1.27c-.53,3.06-2.85,10.77-12.57,10.88-6.12.1-10.13-3.59-12.24-8.56-3.91-9.4-.53-23.67,11.08-24.94,7.92-.84,11.83,3.91,13.2,6.24A1.12,1.12,0,0,1,95,70.05Z" transform="translate(0.02 0.05)" />
				<path class="cls-7" d="M236.89,25.15a47.16,47.16,0,0,1,11.83,31.17,46.71,46.71,0,0,1-11,31.27c-7.5,8.67-17.84,14-29.46,14.27s-22-5-29.66-13.42a47.76,47.76,0,0,1-1-62.55c7.49-8.67,17.73-13.95,29.24-14.16A39.6,39.6,0,0,1,236.89,25.15ZM207.33,33.6a17.71,17.71,0,0,0-13.09,6.45,25.56,25.56,0,0,0-5.91,17.11,24.93,24.93,0,0,0,6.33,16.7A17.23,17.23,0,0,0,208,80a18.21,18.21,0,0,0,13.4-6.55,26,26,0,0,0,5.81-16.9,26.2,26.2,0,0,0-6.23-17A18.58,18.58,0,0,0,207.33,33.6Z" transform="translate(0.02 0.05)" />
				<path class="cls-15" d="M236.89,25.15a47.16,47.16,0,0,1,11.83,31.17,46.71,46.71,0,0,1-11,31.27c-7.5,8.67-17.84,14-29.46,14.27s-22-5-29.66-13.42a47.76,47.76,0,0,1-1-62.55c7.49-8.67,17.73-13.95,29.24-14.16A39.6,39.6,0,0,1,236.89,25.15ZM207.33,33.6a17.71,17.71,0,0,0-13.09,6.45,25.56,25.56,0,0,0-5.91,17.11,24.93,24.93,0,0,0,6.33,16.7A17.23,17.23,0,0,0,208,80a18.21,18.21,0,0,0,13.4-6.55,26,26,0,0,0,5.81-16.9,26.2,26.2,0,0,0-6.23-17A18.58,18.58,0,0,0,207.33,33.6Z" transform="translate(0.02 0.05)" />
				<path class="cls-7" d="M98.18,92.14l.21-71.43a.5.5,0,0,1,.53-.53h19.32a.57.57,0,0,1,.42.21L142,58.22a.45.45,0,0,0,.84-.21l.11-39.1a.5.5,0,0,1,.52-.53h19.11a.5.5,0,0,1,.53.53l-.32,76.18a.5.5,0,0,1-.52.53H142.94a.79.79,0,0,1-.43-.21L119.08,62c-.32-.42-.84-.21-.84.32v29.9a.5.5,0,0,1-.53.53H98.6A.72.72,0,0,1,98.18,92.14Z" transform="translate(0.02 0.05)" />
				<path class="cls-16" d="M98.18,92.14l.21-71.43a.5.5,0,0,1,.53-.53h19.32a.57.57,0,0,1,.42.21L142,58.22a.45.45,0,0,0,.84-.21l.11-39.1a.5.5,0,0,1,.52-.53h19.11a.5.5,0,0,1,.53.53l-.32,76.18a.5.5,0,0,1-.52.53H142.94a.79.79,0,0,1-.43-.21L119.08,62c-.32-.42-.84-.21-.84.32v29.9a.5.5,0,0,1-.53.53H98.6A.72.72,0,0,1,98.18,92.14Z" transform="translate(0.02 0.05)" />
				<path class="cls-7" d="M217,41.39a19.89,19.89,0,0,1,4.74,12.83A19.57,19.57,0,0,1,217.34,67a15.66,15.66,0,0,1-11.75,5.86,15.32,15.32,0,0,1-11.8-5.5A19.56,19.56,0,0,1,189,54.7a19.87,19.87,0,0,1,4.48-13,15.07,15.07,0,0,1,23.5-.35Z" transform="translate(0.02 0.05)" />
				<path class="cls-17" d="M217,41.39a19.89,19.89,0,0,1,4.74,12.83A19.57,19.57,0,0,1,217.34,67a15.66,15.66,0,0,1-11.75,5.86,15.32,15.32,0,0,1-11.8-5.5A19.56,19.56,0,0,1,189,54.7a19.87,19.87,0,0,1,4.48-13,15.07,15.07,0,0,1,23.5-.35Z" transform="translate(0.02 0.05)" />
				<path class="cls-11" d="M237.21,26.94a46.61,46.61,0,0,1,11.61,30.54A45.81,45.81,0,0,1,238.16,88,38.81,38.81,0,0,1,209.34,102c-11.3.21-21.43-4.86-28.93-13.1a45.93,45.93,0,0,1-11.82-30.22,46.48,46.48,0,0,1,11-30.85c7.28-8.45,17.31-13.63,28.5-13.84A38.36,38.36,0,0,1,237.21,26.94Zm-28.82,8.25a17.23,17.23,0,0,0-12.77,6.33,25,25,0,0,0-5.71,16.8,24.91,24.91,0,0,0,6.23,16.38,17,17,0,0,0,13,6,17.81,17.81,0,0,0,13.09-6.44,24.9,24.9,0,0,0,5.59-16.48,25.71,25.71,0,0,0-6.12-16.59C218,37.4,213.46,35.08,208.39,35.19Z" transform="translate(0.02 0.05)" />
				<path class="cls-11" d="M101.77,92.35,102,22.61a.45.45,0,0,1,.42-.42h18.79a.52.52,0,0,1,.42.21l22.81,37a.45.45,0,0,0,.84-.21L145.37,21a.46.46,0,0,1,.42-.43h18.58a.46.46,0,0,1,.42.43l-.21,74.17a.45.45,0,0,1-.42.42h-18.9a.73.73,0,0,1-.42-.21L121.93,62.87c-.21-.42-.85-.21-.85.32L121,92.45a.46.46,0,0,1-.42.43H102A.84.84,0,0,1,101.77,92.35Z" transform="translate(0.02 0.05)" />
				<path class="cls-11" d="M46.45,67.09l.84,29.17a1.58,1.58,0,0,1-1.37,1.48L38.53,98a1.59,1.59,0,0,1-1.48-1.38l-.84-29.26a1.4,1.4,0,0,0-1.37-1.38L28.93,66a1.41,1.41,0,0,1-1.38-1.38l-.21-7.5a1.4,1.4,0,0,1,1.37-1.37l23.44-.53a1.39,1.39,0,0,1,1.37,1.37l.21,7.61a1.39,1.39,0,0,1-1.37,1.37l-4.54.11A1.33,1.33,0,0,0,46.45,67.09Z" transform="translate(0.02 0.05)" />
				<path class="cls-11" d="M49.62,92.14l5.7-25.79a1,1,0,0,1,.84-.74l7.71-.42a.92.92,0,0,1,.95.64l6.44,24.4a.89.89,0,0,1-.64,1.06s-4.85,2.11-5.49,1.48a12.19,12.19,0,0,1-.95-3.38.92.92,0,0,0-1-.64l-5.38.32a.89.89,0,0,0-.84.74l-.85,3.8a.85.85,0,0,1-1,.64l-4.75-1.06A.82.82,0,0,1,49.62,92.14ZM62.18,82.2l-2-7.39-1.58,7.61Z" transform="translate(0.02 0.05)" />
				<path class="cls-11" d="M90.68,71.21a1,1,0,0,1-1.26-.31,5.13,5.13,0,0,0-5-1.8c-5.49.64-6.12,9.09-4.32,13.31.84,2.12,2.42,3.49,4.43,3.49A4.33,4.33,0,0,0,89,82.41a1.16,1.16,0,0,1,1.16-.84L96,82a1,1,0,0,1,1,1.27c-.53,3-2.74,10.57-12.25,10.57-5.91.1-9.92-3.49-11.92-8.35-3.8-9.09-.53-23,10.76-24.3a12.78,12.78,0,0,1,12.88,6,1.13,1.13,0,0,1-.53,1.58Z" transform="translate(0.02 0.05)" />
			</g>
		</g>
	</g>
</svg>
