<svg xmlns="http://www.w3.org/2000/svg" viewBox="0 0 696.44 86.57"><defs><style>.cls-1{fill:#ea565a;opacity:0.1;}</style></defs><g id="Lager_2" data-name="Lager 2"><g id="Lager_5" data-name="Lager 5"><path class="cls-1" d="M653.48,0a43,43,0,1,0,43,43A43,43,0,0,0,653.48,0Zm0,57.87A14.92,14.92,0,1,1,668.4,43,14.92,14.92,0,0,1,653.48,57.87Z"/><path class="cls-1" d="M586.32,43.26,606.62,23a6.37,6.37,0,0,0,0-9l-11.9-11.9a6.37,6.37,0,0,0-9,0l-20.3,20.3-20.3-20.3a6.37,6.37,0,0,0-9,0L524.2,14a6.37,6.37,0,0,0,0,9l20.3,20.3-20.3,20.3a6.37,6.37,0,0,0,0,9l11.9,11.9a6.37,6.37,0,0,0,9,0l20.3-20.3,20.3,20.3a6.37,6.37,0,0,0,9,0l11.9-11.9a6.37,6.37,0,0,0,0-9Z"/><path class="cls-1" d="M479.37.09a43,43,0,1,0,43,43A43,43,0,0,0,479.37.09Zm0,57.87a14.92,14.92,0,1,1,14.92-14.91A14.91,14.91,0,0,1,479.37,58Z"/><path class="cls-1" d="M412.21,43.35l20.3-20.3a6.37,6.37,0,0,0,0-9l-11.9-11.9a6.37,6.37,0,0,0-9,0l-20.3,20.3L371,2.14a6.37,6.37,0,0,0-9,0L350.09,14a6.37,6.37,0,0,0,0,9l20.3,20.3-20.3,20.3a6.37,6.37,0,0,0,0,9L362,84.57a6.39,6.39,0,0,0,9,0l20.3-20.31,20.3,20.31a6.39,6.39,0,0,0,9,0l11.9-11.91a6.37,6.37,0,0,0,0-9Z"/><path class="cls-1" d="M305.26.14a43,43,0,1,0,43,43A43,43,0,0,0,305.26.14Zm0,57.87a14.92,14.92,0,1,1,14.92-14.92A14.92,14.92,0,0,1,305.26,58Z"/><path class="cls-1" d="M238.1,43.4l20.3-20.3a6.37,6.37,0,0,0,0-9L246.5,2.19a6.37,6.37,0,0,0-9,0l-20.3,20.3-20.3-20.3a6.37,6.37,0,0,0-9,0L176,14.09a6.37,6.37,0,0,0,0,9l20.3,20.3L176,63.7a6.37,6.37,0,0,0,0,9l11.9,11.9a6.37,6.37,0,0,0,9,0l20.3-20.3,20.3,20.3a6.37,6.37,0,0,0,9,0l11.9-11.9a6.37,6.37,0,0,0,0-9Z"/><path class="cls-1" d="M131.15.23a43,43,0,1,0,43,43A43,43,0,0,0,131.15.23Zm0,57.87a14.92,14.92,0,1,1,14.92-14.91A14.92,14.92,0,0,1,131.15,58.1Z"/><path class="cls-1" d="M64,43.49l20.3-20.3a6.37,6.37,0,0,0,0-9L72.39,2.28a6.37,6.37,0,0,0-9,0l-20.3,20.3L22.78,2.28a6.37,6.37,0,0,0-9,0L1.87,14.18a6.37,6.37,0,0,0,0,9l20.3,20.3L1.87,63.79a6.37,6.37,0,0,0,0,9l11.9,11.9a6.37,6.37,0,0,0,9,0l20.3-20.3,20.3,20.3a6.37,6.37,0,0,0,9,0l11.9-11.9a6.37,6.37,0,0,0,0-9Z"/></g></g></svg>